<svg width="52" height="54" viewBox="0 0 52 54" fill="none" xmlns="http://www.w3.org/2000/svg">
<path d="M20.0455 53.2727L19.0475 53.2083L18.9788 54.2727H20.0455V53.2727ZM21.1818 35.6818L22.1797 35.7463L22.3105 33.7223L20.6253 34.851L21.1818 35.6818ZM6.45455 45.5455L5.58495 46.0392L6.11652 46.9754L7.01102 46.3763L6.45455 45.5455ZM0.363637 34.8182L-0.0742788 33.9192L-1.03191 34.3856L-0.505963 35.3119L0.363637 34.8182ZM16.2273 27.0909L16.6652 27.9899L18.5108 27.0909L16.6652 26.1919L16.2273 27.0909ZM0.363637 19.3636L-0.505963 18.8699L-1.03191 19.7962L-0.0742788 20.2626L0.363637 19.3636ZM6.45455 8.63636L7.01102 7.8055L6.11652 7.2064L5.58495 8.1426L6.45455 8.63636ZM21.1818 18.5L20.6253 19.3309L22.3105 20.4595L22.1797 18.4355L21.1818 18.5ZM20.0455 0.909088V-0.0909119H18.9788L19.0475 0.973553L20.0455 0.909088ZM32.2727 0.909088L33.2705 0.97612L33.3422 -0.0909119H32.2727V0.909088ZM31.0909 18.5L30.0932 18.433L29.9568 20.4632L31.6474 19.3309L31.0909 18.5ZM45.8182 8.63636L46.6878 8.1426L46.1562 7.2064L45.2617 7.8055L45.8182 8.63636ZM51.9091 19.3636L52.348 20.2622L53.304 19.7951L52.7787 18.8699L51.9091 19.3636ZM36.0909 27.0909L35.652 26.1924L33.8127 27.0909L35.652 27.9894L36.0909 27.0909ZM51.9091 34.8182L52.7787 35.3119L53.304 34.3867L52.348 33.9197L51.9091 34.8182ZM45.8182 45.5455L45.2617 46.3763L46.1562 46.9754L46.6878 46.0392L45.8182 45.5455ZM31.0909 35.6818L31.6474 34.851L29.9568 33.7187L30.0932 35.7488L31.0909 35.6818ZM32.2727 53.2727V54.2727H33.3422L33.2705 53.2057L32.2727 53.2727ZM21.0434 53.3372L22.1797 35.7463L20.1839 35.6173L19.0475 53.2083L21.0434 53.3372ZM20.6253 34.851L5.89807 44.7146L7.01102 46.3763L21.7383 36.5127L20.6253 34.851ZM7.32415 45.0517L1.23324 34.3244L-0.505963 35.3119L5.58495 46.0392L7.32415 45.0517ZM0.801553 35.7172L16.6652 27.9899L15.7894 26.1919L-0.0742788 33.9192L0.801553 35.7172ZM16.6652 26.1919L0.801553 18.4646L-0.0742788 20.2626L15.7894 27.9899L16.6652 26.1919ZM1.23324 19.8574L7.32415 9.13012L5.58495 8.1426L-0.505963 18.8699L1.23324 19.8574ZM5.89807 9.46722L20.6253 19.3309L21.7383 17.6691L7.01102 7.8055L5.89807 9.46722ZM22.1797 18.4355L21.0434 0.844624L19.0475 0.973553L20.1839 18.5645L22.1797 18.4355ZM20.0455 1.90909H32.2727V-0.0909119H20.0455V1.90909ZM31.275 0.842056L30.0932 18.433L32.0887 18.567L33.2705 0.97612L31.275 0.842056ZM31.6474 19.3309L46.3747 9.46722L45.2617 7.8055L30.5344 17.6691L31.6474 19.3309ZM44.9486 9.13012L51.0395 19.8574L52.7787 18.8699L46.6878 8.1426L44.9486 9.13012ZM51.4702 18.4651L35.652 26.1924L36.5298 27.9894L52.348 20.2622L51.4702 18.4651ZM35.652 27.9894L51.4702 35.7167L52.348 33.9197L36.5298 26.1924L35.652 27.9894ZM51.0395 34.3244L44.9486 45.0517L46.6878 46.0392L52.7787 35.3119L51.0395 34.3244ZM46.3747 44.7146L31.6474 34.851L30.5344 36.5127L45.2617 46.3763L46.3747 44.7146ZM30.0932 35.7488L31.275 53.3398L33.2705 53.2057L32.0887 35.6148L30.0932 35.7488ZM32.2727 52.2727H20.0455V54.2727H32.2727V52.2727Z" fill="#00F5A0" fill-opacity="0.8"/>
</svg>